PathFileType	4	(X/Y/Z)	C:\Users\Basilio\Documents\Thesis Gigler\squatting_fais\c3dfiles\054\SLS_front_pre2\markers_experimental.trc
DataRate	CameraRate	NumFrames	NumMarkers	Units	OrigDataRate	OrigDataStartFrame	OrigNumFrames
200.000000	200.000000	4	61	mm	200.000000	913	1461
Frame#	Time	FHD			LBHD			RBHD			C7			T10			CLAV			LSHO			LUUPA			LMUPA			LDUPA			LLEP			LMEP			LRAD			LUL			LRFIN			RSHO			RUPA1			RMUPA			RDUPA			RLEP			RMEP			RRAD			RUL			RUFIN			LASI			RASI			USACR			LSACR			RSACR			LTHI1			LTHI2			LTHI3			LTHI4			LLFC			LMFC			LTIB1			LTIB2			LTIB3			LTIB4			LLMAL			LMMAL			LHEE			LMT1			LMT2			LMT5			RTHI			RTHI2			RTHI3			RTHI4			RLFC			RMFC			RTIB1			RTIB2			RTIB3			RTIB4			RLMAL			RMMAL			RHEE			RMT1			RMT2			RMT5			
		X1	Y1	Z1	X2	Y2	Z2	X3	Y3	Z3	X4	Y4	Z4	X5	Y5	Z5	X6	Y6	Z6	X7	Y7	Z7	X8	Y8	Z8	X9	Y9	Z9	X10	Y10	Z10	X11	Y11	Z11	X12	Y12	Z12	X13	Y13	Z13	X14	Y14	Z14	X15	Y15	Z15	X16	Y16	Z16	X17	Y17	Z17	X18	Y18	Z18	X19	Y19	Z19	X20	Y20	Z20	X21	Y21	Z21	X22	Y22	Z22	X23	Y23	Z23	X24	Y24	Z24	X25	Y25	Z25	X26	Y26	Z26	X27	Y27	Z27	X28	Y28	Z28	X29	Y29	Z29	X30	Y30	Z30	X31	Y31	Z31	X32	Y32	Z32	X33	Y33	Z33	X34	Y34	Z34	X35	Y35	Z35	X36	Y36	Z36	X37	Y37	Z37	X38	Y38	Z38	X39	Y39	Z39	X40	Y40	Z40	X41	Y41	Z41	X42	Y42	Z42	X43	Y43	Z43	X44	Y44	Z44	X45	Y45	Z45	X46	Y46	Z46	X47	Y47	Z47	X48	Y48	Z48	X49	Y49	Z49	X50	Y50	Z50	X51	Y51	Z51	X52	Y52	Z52	X53	Y53	Z53	X54	Y54	Z54	X55	Y55	Z55	X56	Y56	Z56	X57	Y57	Z57	X58	Y58	Z58	X59	Y59	Z59	X60	Y60	Z60	X61	Y61	Z61	

914	4.565	-116.6719589233399	1460.653564453125	-1095.592041015625	-279.3659057617188	1410.161376953125	-1165.727905273438	-296.2585754394532	1410.354736328125	-1025.878784179688	-337.8817138671876	1273.418212890625	-1078.700317382813	-493.5272827148439	982.695251464844	-1060.309326171875	-219.2326202392579	1176.70849609375	-1094.9677734375	-262.7659912109376	1264.872436523438	-1228.422119140625	-127.5971374511719	1162.2880859375	-1366.644165039063	-93.81131744384767	1194.301513671875	-1350.689208984375	-60.12746047973634	1154.857421875	-1380.316650390625	-1.523569703102112	1158.720336914063	-1379.618530273438	1.618829369544983	1088.904541015625	-1342.210327148438	256.6917419433594	1173.195068359375	-1308.874267578125	271.5208129882813	1152.710693359375	-1382.461791992188	346.2967529296876	1201.581176757813	-1328.11572265625	-243.1237030029297	1257.109375	-950.8175048828127	-93.88720703125001	1153.43896484375	-822.051940917969	-60.44680786132814	1185.199340820313	-835.1287841796877	-25.59470558166505	1140.664794921875	-810.3860473632815	19.57675170898438	1137.580810546875	-812.9714355468752	20.01930236816407	1080.987426757813	-862.6370239257815	276.4691772460938	1216.254638671875	-913.1469726562502	285.1739196777344	1175.537231445313	-845.4815673828127	351.6206665039063	1249.93994140625	-896.8723754882815	-367.4364318847657	779.841735839844	-1168.51513671875	-344.5162048339844	819.0640869140627	-923.300231933594	-529.1163330078126	881.2817993164065	-1044.51953125	-541.4783325195314	846.3557739257815	-1068.478393554688	-534.4942016601564	852.4650878906252	-1012.054992675781	-314.8503723144532	579.6350708007814	-1230.780639648438	-231.2950592041016	559.0527954101564	-1230.550048828125	-205.369857788086	598.5272827148439	-1227.37841796875	-204.6261749267579	506.9223632812501	-1214.871215820313	-100.2267379760742	425.9274902343751	-1188.996948242188	-72.84407043457033	456.1044311523439	-1053.084716796875	-124.2439498901367	289.7725524902344	-1101.10498046875	-189.2971343994141	260.6596984863282	-1153.126220703125	-159.2649688720703	247.3522338867188	-1123.569091796875	-208.4344635009766	197.4285125732422	-1075.313354492188	-331.9299926757813	108.7607803344727	-1101.120849609375	-297.4062805175782	134.2137756347657	-1010.284057617188	-406.3848571777345	105.828239440918	-1038.213134765625	-197.3574523925782	54.7117385864258	-1017.866149902344	-188.6732025146485	53.09996795654298	-1066.995727539063	-242.4283447265626	38.92011642456055	-1117.813598632813	-209.6566772460938	635.6083984375001	-819.3806762695315	-143.7958068847657	647.1246337890626	-826.8991699218752	-130.3153686523438	675.7025146484376	-838.1361083984377	-86.59614562988283	586.8619995117189	-839.080505371094	-26.517484664917	531.7561645507814	-846.3311157226565	-6.39845657348633	560.2691650390626	-978.0750122070315	68.40761566162111	462.8919677734376	-858.6939086914065	35.13451004028321	367.4623107910157	-824.3572387695315	78.37412261962892	378.2241210937501	-837.9077148437502	108.9103012084961	338.6083068847657	-866.0916137695315	120.7005844116211	155.1241607666016	-848.8741455078127	150.348373413086	180.744873046875	-936.1383056640627	78.47682952880861	99.1974792480469	-906.945983886719	293.5307617187501	155.2295074462891	-913.700378417969	293.4572143554688	166.87841796875	-866.810974121094	251.7150878906251	136.1555328369141	-818.107604980469	
915	4.57	-116.718734741211	1461.796752929688	-1095.539672851563	-279.6901855468751	1411.454345703125	-1165.518310546875	-296.3683471679688	1411.272094726563	-1025.84423828125	-338.0852966308594	1274.55322265625	-1078.537475585938	-493.456756591797	983.6763916015627	-1060.22802734375	-219.237289428711	1177.835327148438	-1094.884399414063	-262.9779052734376	1265.942993164063	-1228.467529296875	-127.6130599975586	1163.58837890625	-1366.605102539063	-93.85461425781251	1195.48974609375	-1350.71484375	-60.14519500732423	1156.156127929688	-1380.397705078125	-1.596441268920899	1159.970947265625	-1379.59228515625	1.435709238052368	1090.0068359375	-1342.253784179688	256.5802917480469	1174.334228515625	-1308.934936523438	271.3665771484376	1153.677124023438	-1382.337768554688	346.1586303710938	1202.86083984375	-1328.163208007813	-243.1263275146485	1258.23828125	-950.706970214844	-93.73568725585939	1154.792602539063	-822.219177246094	-60.36949157714845	1186.496826171875	-834.7352294921877	-25.41486930847169	1141.7333984375	-810.568786621094	19.67078971862793	1138.709716796875	-812.951599121094	20.1068172454834	1082.08251953125	-862.654235839844	276.4859313964844	1217.65087890625	-913.2828369140627	285.2753906250001	1176.861328125	-845.5035400390627	351.6170349121094	1251.311645507813	-897.1060791015627	-367.0030517578126	781.3463134765627	-1168.389526367188	-344.4430541992188	820.0625000000002	-923.0350341796877	-528.8894042968751	882.2739257812502	-1044.291625976563	-541.1879272460939	847.2078247070315	-1068.3447265625	-534.2476806640626	853.357116699219	-1011.888610839844	-314.4541015625001	580.2117919921876	-1230.54443359375	-231.1731262207032	559.5922851562501	-1230.445434570313	-205.2567901611329	599.0020751953126	-1227.141723632813	-204.9985809326172	507.5101623535157	-1214.597900390625	-100.3536682128907	426.1093750000001	-1188.763671875	-72.97554779052736	456.2537536621095	-1052.973510742188	-124.4690856933594	289.7741699218751	-1100.931396484375	-189.3777770996094	260.8039550781251	-1152.994995117188	-159.3035430908203	247.4606475830079	-1123.397338867188	-208.4903411865235	197.5072326660157	-1075.287109375	-331.9841918945313	108.7490310668946	-1101.06494140625	-297.4212341308594	134.2118225097657	-1010.264404296875	-406.4075317382814	105.8074493408203	-1038.21337890625	-197.2880096435547	54.65344238281251	-1017.870178222656	-188.6307983398438	53.07816696166994	-1066.987548828125	-242.4329223632813	38.90130996704102	-1117.793579101563	-209.4712219238282	636.3516235351564	-819.2578125000002	-143.7239990234375	647.7798461914064	-826.737487792969	-130.1229248046875	676.3145141601564	-838.0015258789065	-86.61262512207033	587.4689941406251	-838.9277343750002	-26.45936012268067	532.2867431640626	-846.243347167969	-6.221704483032228	560.9375000000001	-977.9636840820315	68.26037597656251	463.2417602539064	-858.582214355469	34.96501541137696	367.9055175781251	-824.4268798828127	78.17313385009767	378.5359802246094	-837.935485839844	108.6458816528321	338.9635314941407	-866.0729980468752	120.1417465209961	155.5711975097657	-849.0842285156252	149.9309997558594	181.1521148681641	-936.2131958007815	77.89147186279298	99.78401184082034	-907.2512207031252	292.8535461425782	155.4440002441407	-913.8192138671877	292.9274902343751	167.119857788086	-866.9248046875002	251.3029022216797	136.3139801025391	-818.1793212890627	
916	4.575	-116.7767181396485	1463.120849609375	-1095.404663085938	-279.6896972656251	1412.4208984375	-1165.420654296875	-296.3875427246094	1412.527954101563	-1025.667846679688	-338.2172546386719	1275.590698242188	-1078.366943359375	-493.2213745117189	984.6896972656252	-1060.033081054688	-219.0130615234376	1178.81005859375	-1094.71484375	-262.9829711914063	1267.017944335938	-1228.3779296875	-127.8139572143555	1164.721435546875	-1366.65283203125	-94.18245697021486	1196.494140625	-1350.72021484375	-60.0598602294922	1157.271484375	-1380.509033203125	-1.749464511871338	1161.134521484375	-1379.705322265625	1.332025051116944	1091.060546875	-1342.442504882813	256.4166259765626	1175.725708007813	-1308.883422851563	271.2197875976563	1155.124877929688	-1382.463745117188	345.9756774902344	1204.349243164063	-1328.171997070313	-243.2500457763672	1259.442138671875	-950.5612792968752	-93.84005737304689	1155.781372070313	-821.9615478515627	-60.18043136596681	1187.713989257813	-834.7946777343752	-25.41864967346192	1143.062133789063	-810.3999023437502	19.73497009277344	1139.819213867188	-812.9859008789065	20.15913772583008	1083.28662109375	-862.6412353515627	276.4098815917969	1218.813842773438	-913.3076171875002	285.2928161621094	1178.162475585938	-845.6431274414065	351.5399780273438	1252.623413085938	-897.2261962890627	-366.6990051269532	781.7356567382815	-1168.540161132813	-344.3186950683594	821.106384277344	-922.906921386719	-528.9019165039064	883.2971191406252	-1044.213134765625	-541.3293457031251	848.3457641601565	-1068.161010742188	-533.8702392578126	854.4490966796877	-1011.8603515625	-314.4055786132813	580.9037475585939	-1230.392944335938	-231.2476043701172	560.2560424804689	-1230.205322265625	-204.9406280517579	599.5972900390626	-1227.091552734375	-205.0889129638672	508.2234497070314	-1214.349365234375	-100.5857849121094	426.3862609863282	-1188.539794921875	-73.09084320068361	456.3845520019532	-1052.863159179688	-124.7003860473633	289.8800354003907	-1100.771484375	-189.5028533935547	261.0373229980469	-1152.971923828125	-159.3292236328125	247.5097656250001	-1123.3330078125	-208.5080718994141	197.5407714843751	-1075.220581054688	-331.8559265136719	108.9866333007813	-1101.011840820313	-297.4569091796876	134.1854858398438	-1010.177307128906	-406.4239196777345	105.7814025878907	-1038.188842773438	-197.3838500976563	54.72501373291017	-1017.84619140625	-188.6320953369141	53.10056686401369	-1066.98046875	-242.3962860107422	38.93628311157227	-1117.804321289063	-209.4084777832032	637.1199340820314	-819.0794067382815	-143.4356384277344	648.5031738281251	-826.7221679687502	-130.0182189941407	677.0396118164064	-837.8679199218752	-86.53958129882814	588.1126098632814	-838.855407714844	-26.41989898681641	532.8615722656251	-846.1672363281252	-5.616043090820313	561.5001220703126	-977.7811279296877	68.11367797851564	463.7731933593751	-858.5766601562502	34.74514389038087	368.1651306152344	-824.5239257812502	78.1183319091797	379.1207275390626	-837.280212402344	108.3352355957032	339.3972473144532	-866.1140136718752	119.5310592651367	156.058349609375	-849.1624755859377	149.4784240722657	181.5354461669922	-936.1854248046877	77.15639495849611	100.2602157592774	-907.3034667968752	292.0846557617188	155.658432006836	-913.8187255859377	292.2097167968751	167.2833862304688	-866.7835083007815	250.6003570556641	136.6199188232422	-818.233337402344	
917	4.58	-117.0704956054688	1464.230224609375	-1095.21728515625	-279.7506103515626	1413.776611328125	-1165.265869140625	-296.4801025390626	1413.514770507813	-1025.568481445313	-338.1942138671876	1276.672729492188	-1078.315185546875	-493.0891723632814	985.7229614257815	-1059.854125976563	-219.3067626953126	1179.962158203125	-1094.695434570313	-263.0817260742188	1268.127807617188	-1228.3857421875	-127.8284530639649	1165.724365234375	-1366.702758789063	-94.2277069091797	1197.733520507813	-1350.73095703125	-60.41107559204103	1158.408935546875	-1380.558959960938	-1.85717511177063	1162.28662109375	-1379.778564453125	1.433134317398072	1092.235595703125	-1342.077514648438	256.3776550292969	1176.90380859375	-1309.015014648438	270.5076293945313	1156.4599609375	-1382.332153320313	345.8305358886719	1205.51318359375	-1328.078857421875	-243.2656402587891	1260.49169921875	-950.558532714844	-93.67263031005861	1157.16015625	-822.095642089844	-60.46578598022462	1188.71533203125	-835.1450195312502	-25.35663795471192	1144.122924804688	-810.5806884765627	19.80219078063965	1141.065551757813	-812.9697875976565	19.96335792541504	1084.4345703125	-862.778259277344	276.3647155761719	1220.370361328125	-913.585876464844	285.3567504882813	1179.383178710938	-845.7935791015627	351.4577026367188	1254.041381835938	-897.4500122070315	-366.3234558105469	782.7961425781252	-1168.205200195313	-343.9271240234376	822.0141601562502	-923.0777587890627	-528.5085449218751	884.3491821289065	-1044.171142578125	-540.7947387695314	849.2846679687502	-1068.116943359375	-533.8243408203126	855.3441162109377	-1011.711486816406	-314.2420959472657	581.4096679687501	-1230.20166015625	-231.1708221435547	560.9145507812501	-1230.0078125	-204.8612518310547	600.1625976562501	-1226.909301757813	-205.2079620361329	508.7777404785157	-1214.095581054688	-100.8466415405274	426.7022399902345	-1188.38134765625	-73.33930969238283	456.5504455566407	-1052.655395507813	-124.7439956665039	289.9703979492188	-1100.660034179688	-189.6766510009766	261.2242431640626	-1152.883544921875	-159.4800720214844	247.6870727539063	-1123.18603515625	-208.6951751708985	197.6571807861329	-1075.06982421875	-332.0036926269532	108.7487945556641	-1100.966186523438	-297.4918518066407	134.18017578125	-1010.159729003906	-406.4270324707032	105.7875747680664	-1038.177001953125	-197.4047851562501	54.71274948120119	-1017.82421875	-188.6379089355469	53.10116577148439	-1066.971557617188	-242.4200134277344	38.93483352661134	-1117.772583007813	-209.1911926269532	637.9169921875001	-819.132507324219	-143.4748077392578	649.0793457031251	-826.593200683594	-129.9825744628907	677.7758789062501	-837.6947021484377	-86.42779541015626	588.7073364257814	-838.668640136719	-26.45827293395997	533.5059814453126	-846.0216064453127	-5.314444065093995	562.2521362304689	-977.6399536132815	68.13858032226564	464.2278137207032	-858.5344848632815	34.57415008544923	368.6284179687501	-825.2325439453127	77.76321411132814	379.4848022460938	-838.083190917969	108.1065979003907	339.9164733886719	-866.1336669921877	119.2053985595703	156.3931274414063	-849.3085937500002	149.0203094482422	181.9805908203125	-936.3106689453127	76.5333709716797	100.8742141723633	-907.4104003906252	291.3494567871094	155.8827056884766	-913.8933715820315	292.1137084960938	167.91845703125	-867.077819824219	250.1098937988282	136.7924957275391	-818.4993286132815	
